<svg width="35" height="35" viewBox="0 0 35 35" fill="none" xmlns="http://www.w3.org/2000/svg">
<path fill-rule="evenodd" clip-rule="evenodd" d="M17.5 0C7.83504 0 0 7.83504 0 17.5C0 27.165 7.83504 35 17.5 35C27.165 35 35 27.165 35 17.5C35 7.83504 27.165 0 17.5 0ZM13.6524 8.22303C14.6479 8.17775 14.9661 8.16667 17.5009 8.16667H17.498C20.0336 8.16667 20.3505 8.17775 21.3461 8.22303C22.3397 8.26853 23.0183 8.42589 23.6133 8.65667C24.2277 8.89489 24.7469 9.21375 25.2661 9.73292C25.7853 10.2517 26.1042 10.7724 26.3433 11.3863C26.5728 11.9798 26.7303 12.658 26.777 13.6516C26.8217 14.6472 26.8333 14.9653 26.8333 17.5001C26.8333 20.0349 26.8217 20.3522 26.777 21.3478C26.7303 22.341 26.5728 23.0194 26.3433 23.6131C26.1042 24.2268 25.7853 24.7475 25.2661 25.2663C24.7475 25.7854 24.2276 26.1051 23.6139 26.3436C23.02 26.5743 22.341 26.7316 21.3474 26.7771C20.3518 26.8225 20.0347 26.8336 17.4997 26.8336C14.9651 26.8336 14.6472 26.8225 13.6516 26.7771C12.6582 26.7316 11.9798 26.5743 11.3859 26.3436C10.7724 26.1051 10.2517 25.7854 9.73314 25.2663C9.21412 24.7475 8.89525 24.2268 8.65667 23.6129C8.42603 23.0194 8.26875 22.3412 8.22303 21.3476C8.17797 20.3521 8.16667 20.0349 8.16667 17.5001C8.16667 14.9653 8.17833 14.647 8.22289 13.6514C8.26758 12.6582 8.42508 11.9798 8.65645 11.3861C8.89561 10.7724 9.21455 10.2517 9.73372 9.73292C10.2525 9.21397 10.7732 8.89503 11.3871 8.65667C11.9806 8.42589 12.6588 8.26853 13.6524 8.22303Z" fill="white"/>
<path fill-rule="evenodd" clip-rule="evenodd" d="M16.6636 9.84877C16.8262 9.84855 17.0011 9.84862 17.1898 9.8487L17.5009 9.84877C19.9929 9.84877 20.2883 9.85774 21.2724 9.90244C22.1824 9.94407 22.6763 10.0961 23.0053 10.2239C23.4409 10.393 23.7514 10.5953 24.0779 10.922C24.4045 11.2486 24.6067 11.5598 24.7763 11.9953C24.9041 12.3239 25.0563 12.8178 25.0978 13.7278C25.1425 14.7117 25.1522 15.0073 25.1522 17.4981C25.1522 19.989 25.1425 20.2845 25.0978 21.2685C25.0561 22.1785 24.9041 22.6723 24.7763 23.001C24.6072 23.4365 24.4045 23.7467 24.0779 24.0731C23.7512 24.3998 23.441 24.6021 23.0053 24.7712C22.6767 24.8996 22.1824 25.0512 21.2724 25.0928C20.2885 25.1376 19.9929 25.1473 17.5009 25.1473C15.0087 25.1473 14.7133 25.1376 13.7294 25.0928C12.8194 25.0508 12.3255 24.8988 11.9963 24.771C11.5608 24.6019 11.2496 24.3996 10.923 24.0729C10.5963 23.7462 10.3941 23.4359 10.2245 23.0002C10.0968 22.6716 9.94451 22.1777 9.90309 21.2677C9.85839 20.2838 9.84943 19.9882 9.84943 17.4958C9.84943 15.0034 9.85839 14.7094 9.90309 13.7255C9.94473 12.8155 10.0968 12.3216 10.2245 11.9926C10.3937 11.557 10.5963 11.2459 10.923 10.9193C11.2496 10.5926 11.5608 10.3903 11.9963 10.2208C12.3253 10.0925 12.8194 9.94079 13.7294 9.89894C14.5904 9.86007 14.9241 9.8484 16.6636 9.84644V9.84877ZM22.483 11.3985C21.8647 11.3985 21.363 11.8996 21.363 12.5182C21.363 13.1365 21.8647 13.6382 22.483 13.6382C23.1014 13.6382 23.603 13.1365 23.603 12.5182C23.603 11.8998 23.1014 11.3982 22.483 11.3982V11.3985ZM12.7078 17.5003C12.7078 14.8533 14.8538 12.7072 17.5007 12.7072C20.1477 12.7072 22.2932 14.8533 22.2932 17.5003C22.2932 20.1473 20.1479 22.2924 17.5009 22.2924C14.8539 22.2924 12.7078 20.1473 12.7078 17.5003Z" fill="white"/>
<path d="M17.5009 14.3889C19.219 14.3889 20.612 15.7818 20.612 17.5001C20.612 19.2182 19.219 20.6112 17.5009 20.6112C15.7826 20.6112 14.3897 19.2182 14.3897 17.5001C14.3897 15.7818 15.7826 14.3889 17.5009 14.3889Z" fill="white"/>
</svg>
