<svg width="35" height="35" viewBox="0 0 35 35" fill="none" xmlns="http://www.w3.org/2000/svg">
<path fill-rule="evenodd" clip-rule="evenodd" d="M0 17.4997C0 7.83497 7.83519 0 17.4999 0C27.165 0 35 7.83497 35 17.4997C35 27.1655 27.165 35 17.4999 35C7.83519 35 0 27.1655 0 17.4997ZM7.52106 13.4904C12.9061 11.856 22.2107 12.164 27.8517 15.514C28.6276 15.9759 29.633 15.7194 30.0944 14.9416C30.5554 14.1652 30.3004 13.1606 29.5224 12.6988C23.0285 8.84384 12.7525 8.48152 6.57069 10.3579C5.70534 10.6208 5.21781 11.5346 5.47986 12.3999C5.7417 13.2646 6.65616 13.7528 7.52106 13.4904ZM25.7902 20.9251C26.4316 21.3194 27.2712 21.1181 27.667 20.4759C28.0613 19.8352 27.8594 18.9951 27.2181 18.6002C21.8166 15.2806 13.9152 14.3465 7.55934 16.2753C6.83901 16.4948 6.43214 17.2554 6.64947 17.9768C6.86868 18.6971 7.6308 19.1037 8.35217 18.8858C13.916 17.1969 21.0875 18.0345 25.7902 20.9251ZM25.5256 25.2411C25.2112 25.7568 24.5397 25.9183 24.0259 25.604C19.9165 23.0924 14.744 22.5253 8.65244 23.9166C8.06546 24.0511 7.48038 23.6833 7.34657 23.0966C7.21202 22.5096 7.57859 21.9244 8.16681 21.7905C14.833 20.2667 20.5511 20.9224 25.1637 23.741C25.678 24.0551 25.8399 24.727 25.5256 25.2411Z" fill="white"/>
</svg>
