<?xml version="1.0" encoding="utf-8"?>
<!-- Generator: Adobe Illustrator 17.0.0, SVG Export Plug-In . SVG Version: 6.00 Build 0)  -->
<!DOCTYPE svg PUBLIC "-//W3C//DTD SVG 1.1//EN" "http://www.w3.org/Graphics/SVG/1.1/DTD/svg11.dtd">
<svg version="1.1" id="Layer_1" xmlns="http://www.w3.org/2000/svg" xmlns:xlink="http://www.w3.org/1999/xlink" x="0px" y="0px"
	 width="512px" height="512px" viewBox="0 0 512 512" enable-background="new 0 0 512 512" xml:space="preserve">
<path id="Shape" fill="#fff" d="M433.27,419.672c-13.501,0.063-26.964-1.435-40.121-4.465c-0.613-9.233-4.7-74.702-3.29-83.725
	c5.23-24.118,15.155-46.971,29.209-67.257c12.07-19.305,31.408-41.086,29.889-67.525c-1.1-19.775-11.977-37.41-21.747-54.473
	c-23.686-41.388-65.628-96.76-131.76-125.096c-78.605-33.742-147.464,34.85-191.706,98.086
	c-16.728,23.921-38.501,52.652-40.028,81.954c-2.539,28.652,9.57,56.646,32.189,74.416c24.196,20.718,36.025,52.431,31.308,83.934
	c-2.652,23.132-22.008,51.628-30.653,63.37c-5.363,0.478-10.911,0.789-16.787,0.789c-23.8,0.286-44.207,17.067-49.085,40.364
	c-0.748,3.449,0.741,6.998,3.727,8.88c44.485,27.858,124.332,38.702,177.404,41.757c0.151,0,0.294,0.059,0.445,0.059h0.134
	c74.702,4.255,203.365-2.443,266.282-41.799c3.009-1.88,4.511-5.448,3.752-8.914C477.503,436.731,457.08,419.966,433.27,419.672
	L433.27,419.672z M374.02,427.151c-7.554,10.248-16.3,28.983-17.752,61.314c-10.45,1.477-21.269,2.677-32.298,3.676
	c18.633-23.158,26.179-56.312,28.999-73.753C359.767,421.809,366.802,424.738,374.02,427.151L374.02,427.151z M143.889,357.485
	c5.308-37.019-8.647-74.186-37.007-98.564c-18.774-14.324-28.771-37.365-26.406-60.861c1.284-24.677,22.52-52.451,37.04-73.199
	C158.183,66.694,220.613,3.29,288.869,32.558c61.818,26.506,101.359,78.823,123.761,117.978
	c8.393,14.705,18.675,31.005,19.565,47.104c1.158,20.094-15.948,39.449-27.379,57.713c-15.301,22.175-26.025,47.181-31.543,73.552
	c-0.517,3.078-0.745,6.197-0.68,9.317c0.529,20.48,2.014,49.672,3.408,71.89c-17.596-6.118-33.619-16.056-46.919-29.1
	c-1.441-1.375-2.313-3.241-2.442-5.229c-0.285-11.826,1.151-23.63,4.264-35.043c22.662-29.134,38.702-56.614,31.266-92.983
	c-2.606-9.307-2.992-19.096-1.125-28.58c4.138,0.353,8.393,0.562,12.766,0.562c4.636,0,8.393-3.758,8.393-8.393
	c0-4.636-3.758-8.393-8.393-8.393c-27.698,0-49.278-7.898-64.117-23.502c-24.845-26.095-23.199-65.746-23.183-66.14
	c0.15-2.999-1.311-5.85-3.833-7.479c-2.522-1.629-5.722-1.789-8.393-0.42s-4.41,4.06-4.56,7.059
	c-0.277,2.568-9.736,78.739-129.771,90.54c-2.984,0.3-5.581,2.169-6.813,4.903c-1.232,2.734-0.912,5.917,0.839,8.351
	c1.752,2.434,4.669,3.749,7.652,3.449c3.173-0.311,6.161-0.739,9.233-1.133c2.037,9.673,1.697,19.696-0.99,29.209
	c-7.395,36.218,8.494,63.689,31.24,92.924c3.179,11.594,4.613,23.597,4.255,35.613c-0.104,1.862-0.893,3.62-2.216,4.935
	c-17.552,17.218-39.667,29.049-63.731,34.094c12.212-17.328,20.556-37.079,24.467-57.915L143.889,357.485z M195.282,331.675
	c-19.792-25.315-35.487-48.808-29.008-80.476c3.116-11.503,3.501-23.575,1.125-35.252c62.817-12.238,92.714-43.042,106.773-67.802
	c7.916,34.658,35.424,61.449,70.278,68.449c-2.19,11.462-1.754,23.27,1.276,34.539c4.969,24.291-2.258,46.088-24.929,75.256
	c-17.794,22.906-48.741,59.342-75.608,48.615c-14.907-5.791-32.222-20.732-49.907-43.369L195.282,331.675z M159.106,418.833
	c2.871,17.551,10.441,50.268,28.857,73.199c-11.012-1.016-21.823-2.241-32.231-3.735c-1.46-31.895-9.997-50.512-17.509-60.819
	C145.387,425.112,152.367,422.223,159.106,418.833L159.106,418.833z M48.959,457.988c4.698-12.945,17.007-21.556,30.779-21.529
	c13.601,0.045,27.169-1.336,40.482-4.121c4.793,4.608,16.325,19.129,18.591,53.298C107.636,481.011,77.341,471.69,48.959,457.988z
	 M214.973,494.08c-29.318-18.004-38.207-69.036-40.221-84.32c7.324-4.897,14.135-10.521,20.329-16.787
	c7.898-8.033,7.554-17.114,6.815-28.596c39.139,38.904,68.692,39.265,108.191,0c-0.722,11.482-1.083,20.094,7.009,28.328
	c6.16,6.185,12.935,11.726,20.22,16.535c-1.914,14.739-10.693,66.652-40.347,84.841C269.656,495.553,242.285,495.553,214.973,494.08
	z M373.172,485.821c2.275-34.967,14.269-49.404,18.852-53.718c13.552,2.931,27.38,4.391,41.245,4.356
	c13.801-0.032,26.146,8.577,30.888,21.538C435.41,471.817,404.733,481.198,373.172,485.821L373.172,485.821z"/>
</svg>
