<?xml version="1.0" encoding="iso-8859-1"?>
<!-- Generator: Adobe Illustrator 19.2.1, SVG Export Plug-In . SVG Version: 6.00 Build 0)  -->
<svg version="1.1" xmlns="http://www.w3.org/2000/svg" xmlns:xlink="http://www.w3.org/1999/xlink" x="0px" y="0px"
	 viewBox="0 0 64 64" style="enable-background:new 0 0 64 64;" xml:space="preserve">
<g id="astrogeology-planetery-geology-science-education-badge-logo">
	<circle style="fill:none;stroke:#fff;stroke-width:2;stroke-linejoin:round;stroke-miterlimit:10;" cx="32" cy="32" r="31"/>
	<circle style="fill:none;stroke:#fff;stroke-width:2;stroke-linejoin:round;stroke-miterlimit:10;" cx="32" cy="47" r="8"/>
	<path style="fill:none;stroke:#fff;stroke-width:2;stroke-linejoin:round;stroke-miterlimit:10;" d="M50,29L50,29
		c0-1.105,0.895-2,2-2h0c1.105,0,2-0.895,2-2v0c0-1.105-0.895-2-2-2H35c-3.314,0-6,2.686-6,6v0c0,3.314,2.686,6,6,6h20
		c1.105,0,2-0.895,2-2v0c0-1.105-0.895-2-2-2h-3C50.895,31,50,30.105,50,29z"/>
	<circle style="fill:none;stroke:#fff;stroke-width:2;stroke-linejoin:round;stroke-miterlimit:10;" cx="35.5" cy="29" r="2"/>
	
		<circle style="fill:none;stroke:#fff;stroke-width:2;stroke-linejoin:round;stroke-miterlimit:10;" cx="17.5" cy="23.5" r="7.5"/>
	<circle style="fill:none;stroke:#fff;stroke-width:2;stroke-linejoin:round;stroke-miterlimit:10;" cx="14" cy="41" r="6"/>
	<path style="fill:none;stroke:#fff;stroke-width:2;stroke-linejoin:round;stroke-miterlimit:10;" d="M23,8h13.5
		c1.381,0,2.5,1.119,2.5,2.5v0c0,1.381-1.119,2.5-2.5,2.5h-4c-1.381,0-2.5,1.119-2.5,2.5v0c0,1.381,1.119,2.5,2.5,2.5H49"/>
	
		<line style="fill:none;stroke:#fff;stroke-width:2;stroke-linejoin:round;stroke-miterlimit:10;" x1="49" y1="39" x2="49" y2="47"/>
	
		<line style="fill:none;stroke:#fff;stroke-width:2;stroke-linejoin:round;stroke-miterlimit:10;" x1="53" y1="43" x2="45" y2="43"/>
</g>
<g id="Layer_1">
</g>
</svg>
